<svg width="38" height="37" viewBox="0 0 38 37" fill="none" xmlns="http://www.w3.org/2000/svg">
<path d="M19 37C15.5717 34.7858 12.3939 32.3585 9.49998 29.7432C5.15713 25.8158 2.38556e-06 19.9669 2.38556e-06 14.3933C-0.00188105 11.5468 1.11152 8.76391 3.1993 6.39674C5.28709 4.02958 8.2554 2.18456 11.7286 1.09521C15.2018 0.00585055 19.0237 -0.278884 22.7107 0.277038C26.3977 0.832961 29.784 2.20455 32.4411 4.21823C34.2101 5.55173 35.6123 7.13765 36.5665 8.8842C37.5206 10.6307 38.0078 12.5032 37.9999 14.3933C37.9999 19.9669 32.8428 25.8158 28.4999 29.7432C25.606 32.3585 22.4282 34.7858 19 37ZM19 8.22783C16.8403 8.22783 14.7692 8.87741 13.2421 10.0337C11.715 11.1899 10.8571 12.7581 10.8571 14.3933C10.8571 16.0285 11.715 17.5967 13.2421 18.7529C14.7692 19.9092 16.8403 20.5588 19 20.5588C21.1596 20.5588 23.2307 19.9092 24.7578 18.7529C26.2849 17.5967 27.1428 16.0285 27.1428 14.3933C27.1428 12.7581 26.2849 11.1899 24.7578 10.0337C23.2307 8.87741 21.1596 8.22783 19 8.22783Z" fill="#7EBEE2"/>
</svg>
