<svg width="50" height="37" viewBox="0 0 50 37" fill="none" xmlns="http://www.w3.org/2000/svg">
<path fill-rule="evenodd" clip-rule="evenodd" d="M8.1062 5.02699C8.70117 3.68608 9.69058 2.54346 10.9517 1.74093C12.2127 0.938396 13.69 0.511279 15.2 0.512576H34.8222C37.9065 0.512576 40.6946 2.28854 41.9099 5.02699L44.3526 10.5337C44.5839 11.0552 45.0003 11.4842 45.5246 11.7375C47.0668 12.4825 48.1617 13.8681 48.5009 15.4981L49.5342 20.5012C49.636 20.9809 49.6853 21.4696 49.6853 21.9613V23.1919C49.6853 25.6175 48.4824 27.7898 46.601 29.1426V34.7804C46.601 35.1756 46.4386 35.5545 46.1494 35.8339C45.8601 36.1133 45.4679 36.2703 45.0589 36.2703H38.8904C38.4813 36.2703 38.0891 36.1133 37.7999 35.8339C37.5107 35.5545 37.3482 35.1756 37.3482 34.7804V30.7934C33.3633 30.9365 28.8819 31.0557 25.0111 31.0557C21.1403 31.0557 16.6589 30.9365 12.674 30.7934V34.7804C12.674 35.1756 12.5115 35.5545 12.2223 35.8339C11.9331 36.1133 11.5409 36.2703 11.1319 36.2703H4.96333C4.55433 36.2703 4.16208 36.1133 3.87287 35.8339C3.58366 35.5545 3.42119 35.1756 3.42119 34.7804V29.1426C1.53978 27.7898 0.336914 25.6175 0.336914 23.1919V21.9613C0.337432 21.4709 0.388054 20.9819 0.488044 20.5012L1.52128 15.4951C1.86055 13.8681 2.95546 12.4795 4.49452 11.7375C5.02129 11.4832 5.43766 11.0566 5.66963 10.5337L8.11237 5.02699H8.1062ZM9.58665 24.3511C10.4047 24.3511 11.1892 24.0371 11.7676 23.4783C12.346 22.9195 12.6709 22.1616 12.6709 21.3713C12.6709 20.581 12.346 19.823 11.7676 19.2642C11.1892 18.7054 10.4047 18.3914 9.58665 18.3914C8.76865 18.3914 7.98416 18.7054 7.40574 19.2642C6.82733 19.823 6.50238 20.581 6.50238 21.3713C6.50238 22.1616 6.82733 22.9195 7.40574 23.4783C7.98416 24.0371 8.76865 24.3511 9.58665 24.3511ZM40.4294 24.3511C41.2474 24.3511 42.0319 24.0371 42.6103 23.4783C43.1887 22.9195 43.5137 22.1616 43.5137 21.3713C43.5137 20.581 43.1887 19.823 42.6103 19.2642C42.0319 18.7054 41.2474 18.3914 40.4294 18.3914C39.6114 18.3914 38.8269 18.7054 38.2485 19.2642C37.6701 19.823 37.3451 20.581 37.3451 21.3713C37.3451 22.1616 37.6701 22.9195 38.2485 23.4783C38.8269 24.0371 39.6114 24.3511 40.4294 24.3511ZM18.8395 18.3914C18.0215 18.3914 17.237 18.7054 16.6586 19.2642C16.0802 19.823 15.7552 20.581 15.7552 21.3713C15.7552 22.1616 16.0802 22.9195 16.6586 23.4783C17.237 24.0371 18.0215 24.3511 18.8395 24.3511H31.1766C31.9946 24.3511 32.7791 24.0371 33.3575 23.4783C33.9359 22.9195 34.2609 22.1616 34.2609 21.3713C34.2609 20.581 33.9359 19.823 33.3575 19.2642C32.7791 18.7054 31.9946 18.3914 31.1766 18.3914H18.8395ZM9.29673 10.0152L12.2453 4.31482C12.3735 4.06765 12.5703 3.85982 12.8138 3.71457C13.0573 3.56933 13.3378 3.4924 13.624 3.49239H36.3921C36.6782 3.4924 36.9587 3.56933 37.2022 3.71457C37.4457 3.85982 37.6426 4.06765 37.7708 4.31482L40.7193 10.0152C40.8399 10.2555 40.8928 10.5223 40.8726 10.7887C40.8525 11.055 40.76 11.3116 40.6046 11.5324C40.4492 11.7533 40.2363 11.9307 39.9873 12.0467C39.7383 12.1628 39.4621 12.2134 39.1864 12.1934C36.3797 11.9759 28.8541 11.6869 25.008 11.6869C21.1619 11.6869 13.6332 11.9759 10.8296 12.1934C10.554 12.2134 10.2777 12.1628 10.0288 12.0467C9.77978 11.9307 9.56686 11.7533 9.41143 11.5324C9.25601 11.3116 9.16357 11.055 9.14344 10.7887C9.1233 10.5223 9.17617 10.2555 9.29673 10.0152Z" fill="#7EBEE2"/>
</svg>
