<svg width="49" height="43" viewBox="0 0 49 43" fill="none" xmlns="http://www.w3.org/2000/svg">
<path d="M48.0149 41.0995C48.0149 42.0467 47.1703 42.812 46.125 42.812H2.65637C1.611 42.812 0.76643 42.0467 0.76643 41.0995V18.6232H48.0149V41.0995ZM2.65637 3.85308H12.5785V0.42812C12.5785 0.192654 12.7912 0 13.051 0H16.3584C16.6183 0 16.8309 0.192654 16.8309 0.42812V3.85308H31.9504V0.42812C31.9504 0.192654 32.163 0 32.4229 0H35.7303C35.9902 0 36.2028 0.192654 36.2028 0.42812V3.85308H46.125C47.1703 3.85308 48.0149 4.61834 48.0149 5.56556V14.9842H0.76643V5.56556C0.76643 4.61834 1.611 3.85308 2.65637 3.85308Z" fill="#7EBEE2"/>
</svg>
