<svg width="32" height="32" viewBox="0 0 32 32" fill="none" xmlns="http://www.w3.org/2000/svg">
<path d="M25.053 5.96044C24.1585 6.01156 23.2612 5.93978 22.3863 5.74711C21.3309 5.38571 20.3438 4.84934 19.4663 4.16044C18.7156 3.62829 18.0028 3.04467 17.333 2.41377C17.049 2.14852 16.6749 2.00098 16.2863 2.00098C15.8977 2.00098 15.5236 2.14852 15.2396 2.41377C14.5876 3.02472 13.9021 3.59894 13.1863 4.13377C12.3034 4.83173 11.3126 5.38115 10.253 5.76044C9.25634 5.98562 8.23255 6.06645 7.21295 6.00044C6.37809 5.96587 5.54574 5.88575 4.71962 5.76044C4.51775 5.73051 4.31191 5.74155 4.1144 5.79288C3.91688 5.84421 3.73172 5.93479 3.56996 6.05922C3.40821 6.18365 3.27316 6.33938 3.17288 6.51712C3.0726 6.69486 3.00914 6.89098 2.98629 7.09377C2.91962 7.73377 2.74629 9.40044 2.66629 11.2538C2.55417 13.1055 2.67061 14.9639 3.01295 16.7871C3.97834 19.8077 5.75388 22.5056 8.14629 24.5871C10.0479 26.3808 12.1098 27.9964 14.3063 29.4138C14.8949 29.8179 15.5922 30.0343 16.3063 30.0343C17.0203 30.0343 17.7176 29.8179 18.3063 29.4138C20.3863 27.9595 22.3318 26.3218 24.1196 24.5204C26.372 22.4237 28.04 19.777 28.9596 16.8404" stroke="#1A202C" stroke-width="2.5" stroke-linecap="round" stroke-linejoin="round"/>
<path d="M14.6665 14.6667L18.4798 18.48C18.5036 18.5059 18.5324 18.5265 18.5645 18.5406C18.5967 18.5548 18.6314 18.5621 18.6665 18.5621C18.7016 18.5621 18.7363 18.5548 18.7685 18.5406C18.8006 18.5265 18.8294 18.5059 18.8532 18.48L29.3332 8" stroke="#3563E9" stroke-width="2.5" stroke-linecap="round" stroke-linejoin="round"/>
</svg>
