<svg width="109" height="21" viewBox="0 0 109 21" fill="none" xmlns="http://www.w3.org/2000/svg">
<g clip-path="url(#clip0_39_340)">
<path fill-rule="evenodd" clip-rule="evenodd" d="M9.39369 3.16448C9.45126 2.98195 9.56551 2.82252 9.71986 2.70934C9.87422 2.59617 10.0606 2.53516 10.252 2.53516C10.4434 2.53516 10.6298 2.59617 10.7842 2.70934C10.9385 2.82252 11.0528 2.98195 11.1104 3.16448L12.6604 7.93115H17.6604C17.8586 7.92365 18.0538 7.98127 18.2163 8.09518C18.3787 8.2091 18.4993 8.37305 18.5598 8.562C18.6203 8.75094 18.6172 8.95448 18.5511 9.14153C18.485 9.32857 18.3595 9.48883 18.1937 9.59782L14.1354 12.5395L15.6854 17.3145C15.7467 17.4964 15.7482 17.6931 15.6898 17.8759C15.6313 18.0587 15.516 18.2181 15.3605 18.3307C15.2051 18.4433 15.0178 18.5033 14.8258 18.5019C14.6339 18.5005 14.4474 18.4377 14.2937 18.3228L10.227 15.3478L6.16869 18.2978C6.01495 18.4127 5.8285 18.4755 5.63656 18.4769C5.44463 18.4783 5.25727 18.4183 5.10184 18.3057C4.94641 18.1931 4.83105 18.0337 4.77262 17.8509C4.71418 17.6681 4.71573 17.4714 4.77703 17.2895L6.32703 12.5145L2.26869 9.57282C2.10293 9.46383 1.9774 9.30357 1.91129 9.11653C1.84518 8.92948 1.84213 8.72594 1.90259 8.537C1.96305 8.34805 2.08371 8.1841 2.24612 8.07018C2.40854 7.95626 2.60379 7.89865 2.80203 7.90615H7.80203L9.39369 3.16448Z" fill="#FBAD39"/>
<path fill-rule="evenodd" clip-rule="evenodd" d="M31.3937 3.16448C31.4513 2.98195 31.5655 2.82252 31.7199 2.70934C31.8742 2.59617 32.0606 2.53516 32.252 2.53516C32.4434 2.53516 32.6298 2.59617 32.7842 2.70934C32.9385 2.82252 33.0528 2.98195 33.1104 3.16448L34.6604 7.93115H39.6604C39.8586 7.92365 40.0538 7.98127 40.2163 8.09518C40.3787 8.2091 40.4993 8.37305 40.5598 8.562C40.6203 8.75094 40.6172 8.95448 40.5511 9.14153C40.485 9.32857 40.3595 9.48883 40.1937 9.59782L36.1354 12.5395L37.6854 17.3145C37.7467 17.4964 37.7482 17.6931 37.6898 17.8759C37.6313 18.0587 37.516 18.2181 37.3605 18.3307C37.2051 18.4433 37.0178 18.5033 36.8258 18.5019C36.6339 18.5005 36.4474 18.4377 36.2937 18.3228L32.227 15.3478L28.1687 18.2978C28.015 18.4127 27.8285 18.4755 27.6366 18.4769C27.4446 18.4783 27.2573 18.4183 27.1018 18.3057C26.9464 18.1931 26.8311 18.0337 26.7726 17.8509C26.7142 17.6681 26.7157 17.4714 26.777 17.2895L28.327 12.5145L24.2687 9.57282C24.1029 9.46383 23.9774 9.30357 23.9113 9.11653C23.8452 8.92948 23.8421 8.72594 23.9026 8.537C23.9631 8.34805 24.0837 8.1841 24.2461 8.07018C24.4085 7.95627 24.6038 7.89865 24.802 7.90615H29.802L31.3937 3.16448Z" fill="#FBAD39"/>
<path fill-rule="evenodd" clip-rule="evenodd" d="M53.3937 3.16448C53.4513 2.98195 53.5655 2.82252 53.7199 2.70934C53.8742 2.59617 54.0606 2.53516 54.252 2.53516C54.4434 2.53516 54.6298 2.59617 54.7842 2.70934C54.9385 2.82252 55.0528 2.98195 55.1104 3.16448L56.6604 7.93115H61.6604C61.8586 7.92365 62.0538 7.98127 62.2163 8.09518C62.3787 8.2091 62.4993 8.37305 62.5598 8.562C62.6203 8.75094 62.6172 8.95448 62.5511 9.14153C62.485 9.32857 62.3595 9.48883 62.1937 9.59782L58.1354 12.5395L59.6854 17.3145C59.7467 17.4964 59.7482 17.6931 59.6898 17.8759C59.6313 18.0587 59.516 18.2181 59.3605 18.3307C59.2051 18.4433 59.0178 18.5033 58.8258 18.5019C58.6339 18.5005 58.4474 18.4377 58.2937 18.3228L54.227 15.3478L50.1687 18.2978C50.015 18.4127 49.8285 18.4755 49.6366 18.4769C49.4446 18.4783 49.2573 18.4183 49.1018 18.3057C48.9464 18.1931 48.8311 18.0337 48.7726 17.8509C48.7142 17.6681 48.7157 17.4714 48.777 17.2895L50.327 12.5145L46.2687 9.57282C46.1029 9.46383 45.9774 9.30357 45.9113 9.11653C45.8452 8.92948 45.8421 8.72594 45.9026 8.537C45.9631 8.34805 46.0837 8.1841 46.2461 8.07018C46.4085 7.95626 46.6038 7.89865 46.802 7.90615H51.802L53.3937 3.16448Z" fill="#FBAD39"/>
<path fill-rule="evenodd" clip-rule="evenodd" d="M75.3937 3.16448C75.4513 2.98195 75.5655 2.82252 75.7199 2.70934C75.8742 2.59617 76.0606 2.53516 76.252 2.53516C76.4434 2.53516 76.6298 2.59617 76.7842 2.70934C76.9385 2.82252 77.0528 2.98195 77.1104 3.16448L78.6604 7.93115H83.6604C83.8586 7.92365 84.0538 7.98127 84.2163 8.09518C84.3787 8.2091 84.4993 8.37305 84.5598 8.562C84.6203 8.75094 84.6172 8.95448 84.5511 9.14153C84.485 9.32857 84.3595 9.48883 84.1937 9.59782L80.1354 12.5395L81.6854 17.3145C81.7467 17.4964 81.7482 17.6931 81.6898 17.8759C81.6313 18.0587 81.516 18.2181 81.3605 18.3307C81.2051 18.4433 81.0178 18.5033 80.8258 18.5019C80.6339 18.5005 80.4474 18.4377 80.2937 18.3228L76.227 15.3478L72.1687 18.2978C72.015 18.4127 71.8285 18.4755 71.6366 18.4769C71.4446 18.4783 71.2573 18.4183 71.1018 18.3057C70.9464 18.1931 70.8311 18.0337 70.7726 17.8509C70.7142 17.6681 70.7157 17.4714 70.777 17.2895L72.327 12.5145L68.2687 9.57282C68.1029 9.46383 67.9774 9.30357 67.9113 9.11653C67.8452 8.92948 67.8421 8.72594 67.9026 8.537C67.9631 8.34805 68.0837 8.1841 68.2461 8.07018C68.4085 7.95627 68.6038 7.89865 68.802 7.90615H73.802L75.3937 3.16448Z" fill="#FBAD39"/>
<path fill-rule="evenodd" clip-rule="evenodd" d="M97.3937 3.16448C97.4513 2.98195 97.5655 2.82252 97.7199 2.70934C97.8742 2.59617 98.0606 2.53516 98.252 2.53516C98.4434 2.53516 98.6298 2.59617 98.7842 2.70934C98.9385 2.82252 99.0528 2.98195 99.1104 3.16448L100.66 7.93115H105.66C105.859 7.92365 106.054 7.98127 106.216 8.09518C106.379 8.2091 106.499 8.37305 106.56 8.562C106.62 8.75094 106.617 8.95448 106.551 9.14153C106.485 9.32857 106.359 9.48883 106.194 9.59782L102.135 12.5395L103.685 17.3145C103.747 17.4964 103.748 17.6931 103.69 17.8759C103.631 18.0587 103.516 18.2181 103.361 18.3307C103.205 18.4433 103.018 18.5033 102.826 18.5019C102.634 18.5005 102.447 18.4377 102.294 18.3228L98.227 15.3478L94.1687 18.2978C94.015 18.4127 93.8285 18.4755 93.6366 18.4769C93.4446 18.4783 93.2573 18.4183 93.1018 18.3057C92.9464 18.1931 92.8311 18.0337 92.7726 17.8509C92.7142 17.6681 92.7157 17.4714 92.777 17.2895L94.327 12.5145L90.2687 9.57282C90.1029 9.46383 89.9774 9.30357 89.9113 9.11653C89.8452 8.92948 89.8421 8.72594 89.9026 8.537C89.9631 8.34805 90.0837 8.1841 90.2461 8.07018C90.4085 7.95627 90.6038 7.89865 90.802 7.90615H95.802L97.3937 3.16448Z" stroke="#90A3BF" stroke-width="1.5" stroke-linecap="round" stroke-linejoin="round"/>
</g>
<defs>
<clipPath id="clip0_39_340">
<rect width="108" height="20" fill="white" transform="translate(0.226562 0.505859)"/>
</clipPath>
</defs>
</svg>
